<svg width="70" height="70" viewBox="0 0 70 70" fill="none" xmlns="http://www.w3.org/2000/svg">
<g id="download-core-small">
<path id="Vector" d="M35 69.1058C53.8882 69.1058 69.2001 53.7939 69.2001 34.9058C69.2001 16.0176 53.8882 0.705811 35 0.705811C16.1119 0.705811 0.80005 16.0176 0.80005 34.9058C0.80005 53.7939 16.1119 69.1058 35 69.1058Z" fill="url(#paint0_radial_1_666)"/>
<path id="Vector_2" opacity="0.4" d="M63.7658 35.1C64.5206 50.4966 52.7908 62.4874 37.5668 61.882C22.3428 61.2772 9.3893 48.305 8.63446 32.9084C7.87954 17.5118 19.6091 5.52097 34.8331 6.12619C50.0571 6.73141 63.0104 19.7034 63.7658 35.1Z" fill="url(#paint1_radial_1_666)"/>
<path id="Vector_3" d="M61.3657 36.9008C62.1205 52.2974 50.3908 64.2882 35.1668 63.6828C19.9428 63.078 6.9893 50.1058 6.23444 34.7091C5.47952 19.3125 17.2091 7.32175 32.4331 7.92697C47.6571 8.53219 60.6103 21.5042 61.3657 36.9008Z" fill="url(#paint2_radial_1_666)"/>
<path id="Vector_4" opacity="0.5" d="M63.7658 35.1C64.5206 50.4966 52.7908 62.4874 37.5668 61.882C22.3428 61.2772 9.3893 48.305 8.63446 32.9084C7.87954 17.5118 19.6091 5.52097 34.8331 6.12619C50.0571 6.73141 63.0104 19.7034 63.7658 35.1Z" fill="url(#paint3_radial_1_666)"/>
<path id="Vector_5" opacity="0.6" d="M35.9 59.505C47.6636 59.505 57.2 49.9687 57.2 38.205C57.2 26.4413 47.6636 16.905 35.9 16.905C24.1363 16.905 14.6 26.4413 14.6 38.205C14.6 49.9687 24.1363 59.505 35.9 59.505Z" fill="url(#paint4_radial_1_666)"/>
<path id="Vector_6" fill-rule="evenodd" clip-rule="evenodd" d="M38.0849 41.1777L45.3387 34.665L47.8945 37.4192L37.9118 46.382L36.8466 47.3383L35.6071 46.382L23.9899 37.4192L26.0434 34.665L34.4849 41.1777L32.6 20.5066H36.2L38.0849 41.1777Z" fill="url(#paint5_radial_1_666)"/>
<path id="Vector_7" opacity="0.4" fill-rule="evenodd" clip-rule="evenodd" d="M60.6566 33.8668C60.7832 34.2943 61.391 34.2283 61.3694 33.783C60.6962 20.0419 49.1509 8.46478 35.5817 7.9246C33.4606 7.84018 31.4155 8.03044 29.4772 8.46412C29.0745 8.55418 29.1575 9.11323 29.5697 9.12963C44.0094 9.70293 56.6246 20.2021 60.6566 33.8668Z" fill="url(#paint6_radial_1_666)"/>
</g>
<defs>
<radialGradient id="paint0_radial_1_666" cx="0" cy="0" r="1" gradientUnits="userSpaceOnUse" gradientTransform="translate(35.0001 35.0887) rotate(-90) scale(34.3829 34.3829)">
<stop offset="0.782019" stop-color="#982DBE"/>
<stop offset="0.906819" stop-color="#B038DC" stop-opacity="0.2"/>
<stop offset="1" stop-color="#E4A1FA" stop-opacity="0"/>
</radialGradient>
<radialGradient id="paint1_radial_1_666" cx="0" cy="0" r="1" gradientUnits="userSpaceOnUse" gradientTransform="translate(51.9937 19.0042) rotate(135) scale(49.9836)">
<stop stop-color="#FFDCCC"/>
<stop offset="0.333333" stop-color="#FFBDC0"/>
<stop offset="0.666667" stop-color="#F89DC6"/>
<stop offset="1" stop-color="#E4A1FA"/>
</radialGradient>
<radialGradient id="paint2_radial_1_666" cx="0" cy="0" r="1" gradientUnits="userSpaceOnUse" gradientTransform="translate(51.7999 18.5987) rotate(135) scale(53.1037)">
<stop stop-color="#FFA984"/>
<stop offset="0.333333" stop-color="#FF787F"/>
<stop offset="0.666667" stop-color="#F45FA2"/>
<stop offset="1" stop-color="#C44AF1"/>
</radialGradient>
<radialGradient id="paint3_radial_1_666" cx="0" cy="0" r="1" gradientUnits="userSpaceOnUse" gradientTransform="translate(51.9937 19.0042) rotate(135) scale(49.9836)">
<stop stop-color="#FFDCCC"/>
<stop offset="0.333333" stop-color="#FFBDC0"/>
<stop offset="0.666667" stop-color="#F89DC6"/>
<stop offset="1" stop-color="#E4A1FA"/>
</radialGradient>
<radialGradient id="paint4_radial_1_666" cx="0" cy="0" r="1" gradientUnits="userSpaceOnUse" gradientTransform="translate(35.9 38.205) scale(21.3)">
<stop stop-color="white"/>
<stop offset="1" stop-color="white" stop-opacity="0"/>
</radialGradient>
<radialGradient id="paint5_radial_1_666" cx="0" cy="0" r="1" gradientUnits="userSpaceOnUse" gradientTransform="translate(30.2 31.0066) rotate(39.5226) scale(15.5567)">
<stop stop-color="#EF7744"/>
<stop offset="0.2406" stop-color="#E50914"/>
<stop offset="1" stop-color="#792A95"/>
</radialGradient>
<radialGradient id="paint6_radial_1_666" cx="0" cy="0" r="1" gradientUnits="userSpaceOnUse" gradientTransform="translate(49.7 20.205) rotate(-180) scale(30)">
<stop stop-color="white"/>
<stop offset="1" stop-color="white" stop-opacity="0"/>
</radialGradient>
</defs>
</svg>
