<svg width="54" height="54" viewBox="0 0 54 54" fill="none" xmlns="http://www.w3.org/2000/svg">
<g id="profiles-core-small">
<path id="Vector" d="M1.79999 6.50581C1.79999 3.85491 3.94899 1.70581 6.59989 1.70581H31.8C34.4509 1.70581 36.6 3.85481 36.6 6.50581V31.7057C36.6 34.3566 34.4509 36.5057 31.8 36.5057H6.59999C3.94899 36.5057 1.79999 34.3567 1.79999 31.7057V6.50581Z" fill="url(#paint0_radial_1_712)"/>
<path id="Vector_2" d="M0.599976 5.30663C0.599976 2.65563 2.74899 0.506652 5.39999 0.506592H30.6C33.251 0.506592 35.4 2.65563 35.4 5.30663V30.5065C35.4 33.1575 33.251 35.3065 30.6 35.3065H5.39999C2.74899 35.3066 0.599976 33.1575 0.599976 30.5065V5.30663Z" fill="url(#paint1_radial_1_712)"/>
<path id="Vector_3" d="M9.60003 12.8058C9.60003 13.9656 8.65982 14.9058 7.50002 14.9058C6.34022 14.9058 5.40002 13.9656 5.40002 12.8058C5.40002 11.646 6.34022 10.7058 7.50002 10.7058C8.65982 10.7058 9.60003 11.646 9.60003 12.8058Z" fill="url(#paint2_radial_1_712)"/>
<path id="Vector_4" d="M30.6 12.8058C30.6 13.9656 29.6598 14.9058 28.5 14.9058C27.3402 14.9058 26.4 13.9656 26.4 12.8058C26.4 11.646 27.3402 10.7058 28.5 10.7058C29.6598 10.7058 30.6 11.646 30.6 12.8058Z" fill="url(#paint3_radial_1_712)"/>
<path id="Vector_5" d="M14.6713 20.3551C14.2437 20.1017 13.6917 20.2429 13.4383 20.6705C13.1848 21.0982 13.3261 21.6502 13.7537 21.9036C14.8254 22.5387 17.769 23.6794 21.6375 23.6794C25.506 23.6794 28.4497 22.5387 29.5213 21.9036C29.949 21.6502 30.0902 21.0982 29.8368 20.6705C29.5834 20.2429 29.0313 20.1017 28.6037 20.3551C27.8191 20.8201 25.194 21.8794 21.6375 21.8794C18.081 21.8794 15.456 20.8201 14.6713 20.3551Z" fill="url(#paint4_radial_1_712)"/>
<path id="Vector_6" opacity="0.35" d="M10.2 35.3066H19.2L23.4 18.5066C21.2787 19.0851 19.4542 20.4437 18.2921 22.3103L10.2 35.3066Z" fill="url(#paint5_radial_1_712)"/>
<path id="Vector_7" d="M18.6 23.3066C18.6 20.6556 20.749 18.5066 23.4 18.5066H48.6C51.2508 18.5066 53.4 20.6556 53.4 23.3066V48.5065C53.4 51.1574 51.2508 53.3066 48.6 53.3066H23.4C20.749 53.3066 18.6 51.1574 18.6 48.5066V23.3066Z" fill="url(#paint6_radial_1_712)"/>
<path id="Vector_8" d="M27.6 30.8058C27.6 31.9656 26.6598 32.9058 25.5 32.9058C24.3402 32.9058 23.4 31.9656 23.4 30.8058C23.4 29.646 24.3402 28.7058 25.5 28.7058C26.6598 28.7058 27.6 29.646 27.6 30.8058Z" fill="url(#paint7_radial_1_712)"/>
<path id="Vector_9" d="M48.6 30.8058C48.6 31.9656 47.6598 32.9058 46.5 32.9058C45.3402 32.9058 44.4 31.9656 44.4 30.8058C44.4 29.646 45.3402 28.7058 46.5 28.7058C47.6598 28.7058 48.6 29.646 48.6 30.8058Z" fill="url(#paint8_radial_1_712)"/>
<path id="Vector_10" d="M32.8213 38.5075C32.3937 38.254 31.8416 38.3953 31.5882 38.8229C31.3348 39.2505 31.476 39.8026 31.9037 40.0559C32.9753 40.691 35.919 41.8317 39.7875 41.8317C43.656 41.8317 46.5996 40.691 47.6713 40.0559C48.0989 39.8026 48.2402 39.2505 47.9867 38.8229C47.7333 38.3953 47.1813 38.254 46.7537 38.5075C45.969 38.9724 43.344 40.0317 39.7875 40.0317C36.231 40.0317 33.6059 38.9724 32.8213 38.5075Z" fill="url(#paint9_radial_1_712)"/>
</g>
<defs>
<radialGradient id="paint0_radial_1_712" cx="0" cy="0" r="1" gradientUnits="userSpaceOnUse" gradientTransform="translate(30.075 8.59321) rotate(135) scale(32.8097)">
<stop stop-color="#99421D"/>
<stop offset="0.333333" stop-color="#99161D"/>
<stop offset="0.666667" stop-color="#7D1845"/>
<stop offset="1" stop-color="#59216E"/>
</radialGradient>
<radialGradient id="paint1_radial_1_712" cx="0" cy="0" r="1" gradientUnits="userSpaceOnUse" gradientTransform="translate(53.4 -0.393397) rotate(133.87) scale(75.3216)">
<stop stop-color="#FFDCCC"/>
<stop offset="0.333333" stop-color="#FFBDC0"/>
<stop offset="0.666667" stop-color="#F89DC6"/>
<stop offset="1" stop-color="#E4A1FA"/>
</radialGradient>
<radialGradient id="paint2_radial_1_712" cx="0" cy="0" r="1" gradientUnits="userSpaceOnUse" gradientTransform="translate(51.3 2.00581) rotate(133.939) scale(68.7426 55.9547)">
<stop stop-color="#99421D"/>
<stop offset="0.333333" stop-color="#99161D"/>
<stop offset="0.666667" stop-color="#7D1845"/>
<stop offset="1" stop-color="#59216E"/>
</radialGradient>
<radialGradient id="paint3_radial_1_712" cx="0" cy="0" r="1" gradientUnits="userSpaceOnUse" gradientTransform="translate(51.3 2.00581) rotate(133.939) scale(68.7426 55.9547)">
<stop stop-color="#99421D"/>
<stop offset="0.333333" stop-color="#99161D"/>
<stop offset="0.666667" stop-color="#7D1845"/>
<stop offset="1" stop-color="#59216E"/>
</radialGradient>
<radialGradient id="paint4_radial_1_712" cx="0" cy="0" r="1" gradientUnits="userSpaceOnUse" gradientTransform="translate(51.3 2.00444) rotate(133.939) scale(68.7426 55.9548)">
<stop stop-color="#99421D"/>
<stop offset="0.333333" stop-color="#99161D"/>
<stop offset="0.666667" stop-color="#7D1845"/>
<stop offset="1" stop-color="#59216E"/>
</radialGradient>
<radialGradient id="paint5_radial_1_712" cx="0" cy="0" r="1" gradientUnits="userSpaceOnUse" gradientTransform="translate(30.6 18.8066) rotate(135) scale(23.3345)">
<stop stop-color="#FFA984"/>
<stop offset="0.333333" stop-color="#FF787F"/>
<stop offset="0.666667" stop-color="#F45FA2"/>
<stop offset="1" stop-color="#C44AF1"/>
</radialGradient>
<radialGradient id="paint6_radial_1_712" cx="0" cy="0" r="1" gradientUnits="userSpaceOnUse" gradientTransform="translate(52.8 20.6066) rotate(135) scale(43.2749)">
<stop stop-color="#EF7744"/>
<stop offset="0.333333" stop-color="#E50914"/>
<stop offset="0.666667" stop-color="#A70D53"/>
<stop offset="1" stop-color="#792A95"/>
</radialGradient>
<radialGradient id="paint7_radial_1_712" cx="0" cy="0" r="1" gradientUnits="userSpaceOnUse" gradientTransform="translate(53.1 2.00581) rotate(137.146) scale(73.6614 60.3576)">
<stop stop-color="#FFDCCC"/>
<stop offset="0.333333" stop-color="#FDF6F6"/>
<stop offset="0.666667" stop-color="#FADCE9"/>
<stop offset="1" stop-color="#E4A1FA"/>
</radialGradient>
<radialGradient id="paint8_radial_1_712" cx="0" cy="0" r="1" gradientUnits="userSpaceOnUse" gradientTransform="translate(53.1 2.0058) rotate(137.146) scale(73.6614 60.3576)">
<stop stop-color="#FFDCCC"/>
<stop offset="0.333333" stop-color="#FDF6F6"/>
<stop offset="0.666667" stop-color="#FADCE9"/>
<stop offset="1" stop-color="#E4A1FA"/>
</radialGradient>
<radialGradient id="paint9_radial_1_712" cx="0" cy="0" r="1" gradientUnits="userSpaceOnUse" gradientTransform="translate(53.1 2.00673) rotate(137.146) scale(73.6614 60.3576)">
<stop stop-color="#FFDCCC"/>
<stop offset="0.333333" stop-color="#FDF6F6"/>
<stop offset="0.666667" stop-color="#FADCE9"/>
<stop offset="1" stop-color="#E4A1FA"/>
</radialGradient>
</defs>
</svg>
